<svg xmlns="http://www.w3.org/2000/svg" width="31.452" height="31.452" viewBox="0 0 31.452 31.452"><path d="M15.726,0A15.726,15.726,0,1,0,31.452,15.726,15.728,15.728,0,0,0,15.726,0Zm7.18,12.261q.01.232.01.466A10.2,10.2,0,0,1,12.646,23h0a10.217,10.217,0,0,1-5.533-1.621,7.341,7.341,0,0,0,.861.05,7.243,7.243,0,0,0,4.483-1.545,3.614,3.614,0,0,1-3.372-2.507,3.6,3.6,0,0,0,1.63-.062,3.61,3.61,0,0,1-2.9-3.538c0-.016,0-.031,0-.046a3.585,3.585,0,0,0,1.635.451A3.613,3.613,0,0,1,8.338,9.361a10.248,10.248,0,0,0,7.44,3.771A3.611,3.611,0,0,1,21.929,9.84a7.24,7.24,0,0,0,2.292-.876,3.624,3.624,0,0,1-1.587,2,7.2,7.2,0,0,0,2.073-.568,7.335,7.335,0,0,1-1.8,1.869Zm0,0"/></svg>