<svg xmlns="http://www.w3.org/2000/svg" viewBox="0 0 102.6 103.01"><defs><style>.cls-1{fill:none;stroke:#c7a3a8;stroke-miterlimit:10;stroke-width:1.25px;}.cls-2{fill:#c7a3a8;}</style></defs><title>icon-4</title><g id="Layer_2" data-name="Layer 2"><g id="Layer_1-2" data-name="Layer 1"><path class="cls-1" d="M15.44,15.6H37"/><path class="cls-1" d="M31.36,4.76l5.61,11"/><path class="cls-1" d="M51.86,23.54l19.81,7.82L66.47,16"/><path class="cls-1" d="M87.39,37.25,102,51.66"/><path class="cls-1" d="M71.67,31.36l15.72,5.89"/><path class="cls-1" d="M87.39,37.25V16"/><path class="cls-1" d="M87.39,37.25l10.76-4.42"/><path class="cls-1" d="M87.39,37.25,79.2,51.66"/><path class="cls-1" d="M79.28,51.66,71.67,31.2"/><path class="cls-1" d="M51.86,23.75,32.92,31.36"/><path class="cls-1" d="M32.92,31.36,37,15.77"/><path class="cls-1" d="M32.91,31.36,15.44,37.29"/><path class="cls-1" d="M15.44,37.29.67,51.62"/><path class="cls-1" d="M15.44,37.29l8.19,14.33"/><path class="cls-1" d="M15.44,37.29V15.6"/><path class="cls-1" d="M15.44,37.29,4.84,31.52"/><path class="cls-1" d="M37,15.77,51.66,1,66.43,16"/><path class="cls-1" d="M33,31,23.67,51.49"/><path class="cls-1" d="M52,23.58,66.6,16H87.47"/><path class="cls-1" d="M52,23.58l-15-7.9"/><path class="cls-1" d="M66.6,16.22,72,5.38"/><path class="cls-1" d="M15.44,87.43H37"/><path class="cls-1" d="M31.36,98.31,37,87.3"/><path class="cls-1" d="M51.86,79.53l19.81-7.82-5.2,15.35"/><path class="cls-1" d="M87.39,65.82l14.77-14.41"/><path class="cls-1" d="M71.67,71.71l15.72-5.89"/><path class="cls-1" d="M87.39,65.82V87.06"/><path class="cls-1" d="M87.39,65.82l10.68,4.42"/><path class="cls-1" d="M87.39,65.82,79.2,51.41"/><path class="cls-1" d="M79.28,51.41,71.67,71.88"/><path class="cls-1" d="M51.86,79.32,32.92,71.71"/><path class="cls-1" d="M32.92,71.71,37,87.3"/><path class="cls-1" d="M32.91,71.71,15.44,65.78"/><path class="cls-1" d="M15.44,65.78.67,51.45"/><path class="cls-1" d="M15.44,65.78l8.19-14.33"/><path class="cls-1" d="M15.44,65.78V87.47"/><path class="cls-1" d="M15.44,65.78,4.84,71.55"/><path class="cls-1" d="M37,87.31l14.65,14.81L66.43,87.06"/><path class="cls-1" d="M33,72,23.67,51.58"/><path class="cls-1" d="M52,79.49,66.6,87.06H87.47"/><path class="cls-1" d="M52,79.49l-15,7.9"/><path class="cls-1" d="M66.6,87.06,72,97.9"/><ellipse class="cls-1" cx="51.29" cy="51.49" rx="50.67" ry="50.87"/><path class="cls-2" d="M74.66,34.18a5.44,5.44,0,0,1-.49,2.7,5.72,5.72,0,0,1-2,1.89,5.23,5.23,0,0,1-2.66.61,4.72,4.72,0,0,1-2.58-.74A4.92,4.92,0,0,1,65,36.72a5.24,5.24,0,0,1-.16-5.24,5.46,5.46,0,0,1,1.92-2A5.21,5.21,0,0,1,69.46,29a5.13,5.13,0,0,1,2.66.61,4.92,4.92,0,0,1,2,1.89A5.21,5.21,0,0,1,74.66,34.18Z"/><path class="cls-2" d="M32.06,74.37A3.62,3.62,0,0,1,31,77a3.43,3.43,0,0,1-4.84.39,3,3,0,0,1-.4-.39,3.69,3.69,0,0,1-1-2.58,3.62,3.62,0,0,1,.94-2.7,3.78,3.78,0,0,1,2.7-1.18A4.05,4.05,0,0,1,31,71.71,3.77,3.77,0,0,1,32.06,74.37Z"/><path class="cls-2" d="M73.19,70.52A3.9,3.9,0,0,1,72,73.23a3.72,3.72,0,0,1-2.66,1.09,3.51,3.51,0,0,1-3.77-3.25,5,5,0,0,1,0-.55,3.73,3.73,0,0,1,1.07-2.7,3.83,3.83,0,0,1,2.7-1.19,4.1,4.1,0,0,1,3.85,3.89Z"/></g></g></svg>