<svg xmlns="http://www.w3.org/2000/svg" width="182.653" height="153.599" viewBox="0 0 182.653 153.599"><defs><style>.a,.b,.c,.d,.e,.f,.g,.h{fill:none;}.a{stroke:#af4c4c;}.a,.b,.c,.d,.f,.g,.h{stroke-miterlimit:10;stroke-width:3px;}.b{stroke:#012957;}.c{stroke:#e0a812;}.c,.d{stroke-dasharray:2;}.d,.f,.g,.h{stroke:#d68a8a;}.f{stroke-dasharray:2.08 2.08;}.g{stroke-dasharray:2.23 2.23;}.h{stroke-dasharray:2.05 2.05;}</style></defs><g transform="translate(1.782 1.5)"><line class="a" x2="71.957" transform="translate(53.597 59.581)"/><path class="a" d="M15.03,32.107,29.964,7.15,44.948,32.107" transform="translate(59.586 27.473)"/><path class="b" d="M617.65,585.32" transform="translate(-538.942 -525.739)"/><path class="a" d="M72.444,7.15H21.353L10.92,32.107,46.873,67.4h0l36-35.288Z" transform="translate(42.677 27.473)"/><path class="a" d="M64.051,7.15,38.48,67.4,12.96,7.15" transform="translate(51.07 27.473)"/><path class="c" d="M616.18,585.62" transform="translate(-544.99 -524.505)"/><path class="d" d="M110.083,4.08H23.7L6.06,46.272l60.808,59.734h0l60.859-59.734Z" transform="translate(22.682 14.843)"/><path class="e" d="M614.49,585.81" transform="translate(-551.943 -523.723)"/><path class="a" d="M36.489,5.085,34.494.38H29.38" transform="translate(118.626 -0.38)"/><line class="f" x1="101.006" transform="translate(36.413 0)"/><path class="a" d="M12.2.38H7.083L5.14,5.085" transform="translate(18.897 -0.38)"/><line class="g" x1="15.445" y2="36.874" transform="translate(4.194 15.24)"/><path class="a" d="M2.435,11.6.44,16.305l3.682,3.58" transform="translate(-0.44 45.782)"/><line class="h" x2="71.037" y2="69.758" transform="translate(11.149 72.98)"/><path class="a" d="M17.24,29.01l3.631,3.58h0l3.682-3.58" transform="translate(68.679 117.41)"/><line class="h" y1="69.707" x2="71.037" transform="translate(100.699 69.349)"/><path class="a" d="M34.75,19.885l3.631-3.58L36.438,11.6" transform="translate(140.719 45.782)"/><line class="g" x1="15.445" y1="36.874" transform="translate(157.313 9.973)"/></g></svg>