<svg xmlns="http://www.w3.org/2000/svg" width="159.66" height="113.691" viewBox="0 0 159.66 113.691"><defs><style>.a{fill:#fff;}.b{fill:#923e3e;}.b,.c,.d{stroke:#a67f7f;stroke-miterlimit:10;}.c,.f{fill:none;}.d{fill:rgba(0,0,0,0);}.e{fill:#af4c4c;}</style></defs><g transform="translate(0.592 0.972)"><rect class="a" width="159.068" height="39.166" transform="translate(0 73.553)"/><path class="b" d="M89.77.97H38.58L28.09,25.978,64.16,61.417h0l36.07-35.439Z" transform="translate(54.57 -0.97)"/><line class="c" x2="72.14" transform="translate(0 25.008)"/><path class="c" d="M7.6,25.978,22.6.97l15,25.008" transform="translate(13.471 -0.97)"/><path class="c" d="M467.92,581.15" transform="translate(-442.731 -556.141)"/><path class="c" d="M62.27.97H11.05L.59,25.978,36.66,61.417h0L72.73,25.978Z" transform="translate(-0.59 -0.97)"/><path class="d" d="M55.289.97,29.68,61.417,4.07.97" transform="translate(6.39 -0.97)"/><line class="c" x2="72.14" transform="translate(82.66 25.008)"/><path class="c" d="M35.1,25.978,50.1.97,65.128,25.978" transform="translate(68.631 -0.97)"/><path class="c" d="M495.43,581.15" transform="translate(-387.551 -556.141)"/><path class="c" d="M89.77.97H38.58L28.09,25.978,64.16,61.417h0l36.07-35.439Z" transform="translate(54.57 -0.97)"/><path class="c" d="M82.769.97,57.16,61.417,31.58.97" transform="translate(61.571 -0.97)"/><path class="e" d="M460.144,616.73V602.843a1.834,1.834,0,0,1,2.044-2.014h5.05a9.018,9.018,0,0,1,0,18.035h-5.05a1.864,1.864,0,0,1-2.044-2.134Zm7.094-1.323a5.381,5.381,0,0,0,5.621-5.591,5.23,5.23,0,0,0-5.621-5.621h-3.246v11.212Z" transform="translate(-458.371 -516.696)"/><path class="e" d="M481.224,617.192v-5.8h-8.506v5.8a1.894,1.894,0,0,1-1.864,1.924,1.954,1.954,0,0,1-1.954-1.924V602.674a1.924,1.924,0,0,1,1.924-1.894,1.863,1.863,0,0,1,1.894,1.894v5.351h8.506v-5.351a1.924,1.924,0,0,1,3.847,0v14.518a1.954,1.954,0,0,1-1.954,1.924,1.924,1.924,0,0,1-1.894-1.924Z" transform="translate(-440.766 -516.827)"/><path class="e" d="M477.7,617.032V602.514a1.924,1.924,0,0,1,3.817,0v14.518a1.924,1.924,0,1,1-3.818,0Z" transform="translate(-423.144 -516.667)"/><path class="e" d="M482,616.781a1.683,1.683,0,0,1,1.683-1.683,1.994,1.994,0,0,1,.752.15,3,3,0,0,0,1.743.511,2.645,2.645,0,0,0,2.8-3.006v-10.28a1.924,1.924,0,0,1,3.817,0v10.34a5.711,5.711,0,0,1-6.312,6.222,7.094,7.094,0,0,1-3.517-.871A1.683,1.683,0,0,1,482,616.781Z" transform="translate(-414.489 -516.747)"/><path class="e" d="M503.518,617.252a1.834,1.834,0,0,1-1.8,1.864,1.683,1.683,0,0,1-1.353-.6l-6.012-6.733-1.443,1.623v3.787a1.924,1.924,0,0,1-1.924,1.924,1.954,1.954,0,0,1-1.924-1.924V602.674a1.924,1.924,0,0,1,3.847,0v6.342l6.913-7.665a1.742,1.742,0,0,1,1.353-.571,1.773,1.773,0,0,1,1.773,1.773,1.593,1.593,0,0,1-.481,1.173l-5.441,5.771,6.012,6.553A1.984,1.984,0,0,1,503.518,617.252Z" transform="translate(-400.328 -516.827)"/><path class="e" d="M497.069,616.7V602.514a1.924,1.924,0,0,1,3.817,0v12.865H506.9a1.683,1.683,0,1,1,0,3.366h-7.905a1.833,1.833,0,0,1-1.924-2.044Z" transform="translate(-384.29 -516.667)"/><path class="e" d="M519.695,617.5V606.315L514.8,618.7a1.082,1.082,0,0,1-1.022.721,1.142,1.142,0,0,1-1.022-.721l-4.869-12.384V617.5a1.894,1.894,0,0,1-1.864,1.924,1.954,1.954,0,0,1-1.954-1.924V604.211a3.057,3.057,0,1,1,6.011-1.112l3.637,9.378,3.7-9.378a3.172,3.172,0,0,1,6.162.992v13.286a1.954,1.954,0,0,1-1.954,1.924,1.924,1.924,0,0,1-1.924-1.8Z" transform="translate(-370.335 -517.133)"/><line class="f" x2="159.068" transform="translate(0 73.553)"/></g></svg>