<svg xmlns="http://www.w3.org/2000/svg" width="106.901" height="113.749" viewBox="0 0 106.901 113.749"><defs><style>.a{fill:#cd9191;}.b,.h{fill:#af4c4c;}.c{fill:#e18a8a;}.d{fill:#e0a812;}.e{fill:#e2a9a9;}.f{fill:#c28686;}.g{fill:none;stroke:#af4c4c;stroke-miterlimit:10;}.h{stroke:#d1c1a7;}</style></defs><g transform="translate(0 1)"><path class="a" d="M583.946,526a2.169,2.169,0,0,1,0-4.093h102.64a2.169,2.169,0,0,1,0,4.093Z" transform="translate(-581.812 -463.633)"/><path class="b" d="M584.149,525.4a1.719,1.719,0,0,1,0-3.437h102.64a1.719,1.719,0,0,1,0,3.438Z" transform="translate(-582.015 -463.478)"/><path class="c" d="M634.448,553.005a2.086,2.086,0,0,1-1.8-1.064l-19.521-32.535L593.6,551.941a2.087,2.087,0,0,1-1.842,1.064,2.29,2.29,0,0,1-1.1-.327,2.129,2.129,0,0,1-.7-2.906l21.322-35.6a2.21,2.21,0,0,1,3.683,0l21.322,35.6a2.128,2.128,0,0,1-.7,2.906,2.331,2.331,0,0,1-1.146.328Z" transform="translate(-559.672 -490.635)"/><path class="b" d="M591.467,552.21a1.6,1.6,0,0,1-.859-.246,1.677,1.677,0,0,1-.614-2.333l21.363-35.6a1.841,1.841,0,0,1,2.946,0l21.363,35.6a1.678,1.678,0,0,1-.614,2.333,1.633,1.633,0,0,1-.9.246,1.6,1.6,0,0,1-1.432-.819l-19.89-33.149-19.849,33.149a1.759,1.759,0,0,1-1.514.818Z" transform="translate(-559.376 -490.29)"/><path class="d" d="M591.61,522.38" transform="translate(-553.626 -462.179)"/><path class="d" d="M591.61,522.38" transform="translate(-553.626 -462.179)"/><path class="e" d="M635.783,603.441a2.292,2.292,0,0,1-1.514-.614l-51.279-50.379a2.128,2.128,0,0,1-.491-2.374l14.9-35.564a2.127,2.127,0,0,1,1.964-1.351h72.847a2.169,2.169,0,0,1,1.964,1.31l14.9,35.6a2.169,2.169,0,0,1-.491,2.374l-51.32,50.379a2.089,2.089,0,0,1-1.474.614ZM587,550.238l48.783,48.21,48.783-47.882-13.792-32.74H600.751Z" transform="translate(-582.329 -490.692)"/><path class="b" d="M635.469,602.692a1.76,1.76,0,0,1-1.187-.491l-51.32-50.42a1.719,1.719,0,0,1-.409-1.883l14.9-35.6a1.759,1.759,0,0,1,1.6-1.023h72.847a1.759,1.759,0,0,1,1.6,1.023l14.9,35.6a1.719,1.719,0,0,1-.409,1.883L636.656,602.2A1.84,1.84,0,0,1,635.469,602.692Zm-49.11-52.548,49.11,48.415,49.11-48.415-13.874-33.436H600.192Z" transform="translate(-582.015 -490.352)"/><path class="f" d="M624.536,603.41a2.169,2.169,0,0,1-1.965-1.31l-36.423-85.943a2.136,2.136,0,1,1,3.929-1.677l34.459,81.359L659,514.48a2.169,2.169,0,0,1,1.964-1.31,2.218,2.218,0,0,1,.859.2,2.128,2.128,0,0,1,1.1,2.783L626.5,602.1A2.168,2.168,0,0,1,624.536,603.41Z" transform="translate(-571.082 -490.661)"/><path class="b" d="M624.224,602.6a1.8,1.8,0,0,1-1.6-1.064L586.2,515.592a1.719,1.719,0,0,1,.9-2.251,2.174,2.174,0,0,1,.7,0,1.8,1.8,0,0,1,1.6,1.064l34.828,82.259,34.827-82.259a1.719,1.719,0,0,1,1.6-1.064,1.309,1.309,0,0,1,.655,0,1.718,1.718,0,0,1,.941,2.251l-36.423,85.943a1.8,1.8,0,0,1-1.6,1.063Z" transform="translate(-570.77 -490.26)"/><path class="g" d="M76.284,2.15V69.513H4.46V7.757" transform="translate(13.799 6.649)"/><path class="h" d="M20.51,10.6,26.649,0l6.1,10.6Z" transform="translate(63.433)"/></g></svg>