<svg xmlns="http://www.w3.org/2000/svg" width="160" height="160.006" viewBox="0 0 160 160.006"><defs><style>.a{fill:#2c2c2c;}</style></defs><path class="a" d="M81.578,160.007c-.53,0-1.06,0-1.593,0-12.542.031-24.131-.288-35.4-.974a47.321,47.321,0,0,1-27.276-10.325c-7.249-5.911-12.2-13.9-14.712-23.752C.408,116.379.292,107.962.181,99.82.1,93.979.017,87.058,0,80.019c.017-7.068.1-13.99.181-19.831C.292,52.048.408,43.63,2.6,35.055,5.109,25.206,10.059,17.213,17.308,11.3A47.322,47.322,0,0,1,44.586.977c11.27-.685,22.861-1,35.43-.974,12.546-.027,24.131.289,35.4.974A47.321,47.321,0,0,1,142.692,11.3c7.25,5.911,12.2,13.9,14.712,23.752,2.188,8.575,2.3,16.993,2.415,25.133.081,5.841.165,12.763.181,19.8v.029c-.016,7.039-.1,13.961-.181,19.8-.111,8.14-.226,16.557-2.415,25.133-2.514,9.849-7.462,17.841-14.712,23.752a47.321,47.321,0,0,1-27.276,10.325c-10.793.657-21.88.977-33.838.977Zm-1.593-12.5c12.338.029,23.667-.282,34.672-.951a34.434,34.434,0,0,0,20.136-7.536,31.559,31.559,0,0,0,10.5-17.155c1.821-7.138,1.926-14.8,2.028-22.213.079-5.8.162-12.675.179-19.646-.017-6.972-.1-13.843-.179-19.646-.1-7.411-.206-15.075-2.028-22.214a31.559,31.559,0,0,0-10.5-17.155,34.441,34.441,0,0,0-20.136-7.534c-11.005-.67-22.334-.979-34.643-.952-12.336-.029-23.665.282-34.67.952a34.441,34.441,0,0,0-20.136,7.534,31.559,31.559,0,0,0-10.5,17.155c-1.821,7.139-1.926,14.8-2.028,22.214-.079,5.807-.162,12.684-.179,19.66.017,6.946.1,13.824.179,19.631.1,7.411.206,15.075,2.028,22.213a31.559,31.559,0,0,0,10.5,17.155,34.442,34.442,0,0,0,20.136,7.534C56.349,147.222,67.681,147.535,79.985,147.5Zm-.3-28.436A39.064,39.064,0,1,1,118.751,80,39.109,39.109,0,0,1,79.687,119.068Zm0-65.628A26.564,26.564,0,1,0,106.251,80,26.594,26.594,0,0,0,79.687,53.44Zm43.439-25a9.375,9.375,0,1,0,9.375,9.375A9.375,9.375,0,0,0,123.126,28.44Zm0,0" transform="translate(0 -0.001)"/></svg>