<svg xmlns="http://www.w3.org/2000/svg" width="30" height="30" viewBox="0 0 30 30"><defs><style>.a{fill:#fff;}</style></defs><path class="a" d="M212.722,209.861A2.861,2.861,0,1,1,209.861,207,2.861,2.861,0,0,1,212.722,209.861Zm0,0" transform="translate(-194.861 -194.861)"/><path class="a" d="M149.212,137.463a2.842,2.842,0,0,0-1.629-1.629,4.748,4.748,0,0,0-1.594-.3c-.905-.041-1.177-.05-3.468-.05s-2.563.009-3.468.05a4.752,4.752,0,0,0-1.594.3,2.843,2.843,0,0,0-1.629,1.629,4.75,4.75,0,0,0-.3,1.594c-.041.905-.05,1.176-.05,3.468s.009,2.563.05,3.468a4.749,4.749,0,0,0,.3,1.594,2.842,2.842,0,0,0,1.629,1.629,4.743,4.743,0,0,0,1.594.3c.9.041,1.176.05,3.468.05s2.564-.009,3.468-.05a4.743,4.743,0,0,0,1.594-.3,2.842,2.842,0,0,0,1.629-1.629,4.753,4.753,0,0,0,.3-1.594c.041-.905.05-1.177.05-3.468s-.009-2.563-.05-3.468A4.743,4.743,0,0,0,149.212,137.463Zm-6.691,9.469a4.407,4.407,0,1,1,4.407-4.407A4.407,4.407,0,0,1,142.521,146.932Zm4.582-7.959a1.03,1.03,0,1,1,1.03-1.03A1.03,1.03,0,0,1,147.1,138.973Zm0,0" transform="translate(-127.521 -127.525)"/><path class="a" d="M15,0A15,15,0,1,0,30,15,15,15,0,0,0,15,0Zm8.561,18.551a6.319,6.319,0,0,1-.4,2.091,4.4,4.4,0,0,1-2.519,2.519,6.324,6.324,0,0,1-2.091.4c-.919.042-1.212.052-3.551.052s-2.633-.01-3.551-.052a6.324,6.324,0,0,1-2.091-.4,4.4,4.4,0,0,1-2.519-2.519,6.318,6.318,0,0,1-.4-2.091C6.4,17.633,6.387,17.339,6.387,15s.01-2.633.052-3.551a6.32,6.32,0,0,1,.4-2.091A4.407,4.407,0,0,1,9.358,6.839a6.325,6.325,0,0,1,2.091-.4c.919-.042,1.212-.052,3.551-.052s2.633.01,3.551.052a6.327,6.327,0,0,1,2.091.4,4.405,4.405,0,0,1,2.519,2.519,6.319,6.319,0,0,1,.4,2.091c.042.919.052,1.212.052,3.551S23.6,17.633,23.561,18.551Zm0,0"/></svg>