<svg xmlns="http://www.w3.org/2000/svg" viewBox="0 0 106.91 113.75"><defs><style>.cls-1{fill:#cd9191;}.cls-2,.cls-7{fill:#c7a3a8;}.cls-3{fill:#e18a8a;}.cls-4{fill:#e2a9a9;}.cls-5{fill:#c28686;}.cls-6{fill:none;stroke:#af4c4c;stroke-miterlimit:10;}.cls-7{stroke:#d1c1a7;}</style></defs><title>icon-2</title><g id="Layer_2" data-name="Layer 2"><g id="Layer_1-2" data-name="Layer 1"><path class="cls-1" d="M2.13,63.37a2.18,2.18,0,0,1,0-4.1H104.77a2.17,2.17,0,0,1,0,4.1Z"/><path class="cls-2" d="M2.13,62.92a1.72,1.72,0,0,1,0-3.43H104.77a1.72,1.72,0,1,1,0,3.43Z"/><path class="cls-3" d="M74.78,63.37A2.08,2.08,0,0,1,73,62.31L53.45,29.77,33.93,62.31a2.1,2.1,0,0,1-1.84,1.06A2.24,2.24,0,0,1,31,63a2.12,2.12,0,0,1-.7-2.9l21.32-35.6a2.2,2.2,0,0,1,3.06-.62,2,2,0,0,1,.62.62l21.32,35.6a2.12,2.12,0,0,1-.7,2.9,2.29,2.29,0,0,1-1.14.33Z"/><path class="cls-2" d="M32.09,62.92a1.57,1.57,0,0,1-.86-.25,1.67,1.67,0,0,1-.64-2.28l0,0L52,24.74a1.85,1.85,0,0,1,2.58-.37,2.16,2.16,0,0,1,.37.37l21.36,35.6a1.68,1.68,0,0,1-.57,2.31l0,0a1.7,1.7,0,0,1-2.34-.57L53.45,29,33.6,62.1a1.74,1.74,0,0,1-1.51.82Z"/><path class="cls-4" d="M53.45,113.75a2.29,2.29,0,0,1-1.51-.61L.66,62.76a2.14,2.14,0,0,1-.49-2.38l14.9-35.56a2.11,2.11,0,0,1,2-1.35H89.88a2.14,2.14,0,0,1,2,1.31l14.9,35.6a2.14,2.14,0,0,1-.49,2.37L54.93,113.13a2.08,2.08,0,0,1-1.47.61ZM4.67,60.55l48.78,48.21,48.79-47.89L88.44,28.13h-70Z"/><path class="cls-2" d="M53.45,113.34a1.74,1.74,0,0,1-1.18-.49L1,62.43a1.72,1.72,0,0,1-.41-1.88L15.44,25a1.76,1.76,0,0,1,1.6-1H89.88a1.75,1.75,0,0,1,1.6,1l14.9,35.6a1.71,1.71,0,0,1-.4,1.88L54.64,112.85A1.85,1.85,0,0,1,53.45,113.34ZM4.34,60.79l49.11,48.42,49.11-48.42L88.69,27.36H18.18Z"/><path class="cls-5" d="M53.45,113.75a2.16,2.16,0,0,1-2-1.31L15.07,26.5A2.14,2.14,0,0,1,19,24.8v0l34.46,81.36L87.92,24.82a2.16,2.16,0,0,1,2-1.31,2.3,2.3,0,0,1,.86.2,2.12,2.12,0,0,1,1.1,2.78l-36.42,86A2.17,2.17,0,0,1,53.45,113.75Z"/><path class="cls-2" d="M53.45,113.34a1.82,1.82,0,0,1-1.6-1.06L15.43,26.33a1.72,1.72,0,0,1,.9-2.25,2.06,2.06,0,0,1,.7,0,1.8,1.8,0,0,1,1.6,1.07L53.46,107.4,88.28,25.15a1.73,1.73,0,0,1,1.6-1.07,1.47,1.47,0,0,1,.66,0,1.73,1.73,0,0,1,.95,2.24h0l-36.42,86a1.82,1.82,0,0,1-1.6,1.06Z"/><path class="cls-6" d="M90.08,9.8V77.16H18.26V15.41"/><path class="cls-7" d="M83.94,11.6,90.08,1l6.1,10.6Z"/></g></g></svg>