<svg xmlns="http://www.w3.org/2000/svg" width="102.597" height="103.01" viewBox="0 0 102.597 103.01"><defs><style>.a{fill:none;stroke:#af4c4c;stroke-miterlimit:10;stroke-width:1.25px;}.b{fill:#af4c4c;}</style></defs><g transform="translate(0.625 0.625)"><g transform="translate(0 0)"><g transform="translate(0.041 0.327)"><path class="a" d="M619.81,514.85h21.568" transform="translate(-605.036 -500.199)"/><path class="a" d="M623.7,512.2l5.607,11.009" transform="translate(-593.006 -508.394)"/><path class="a" d="M628.71,522.511l19.808,7.817-5.2-15.388" transform="translate(-577.513 -499.921)"/><path class="a" d="M637.39,520.14l14.569,14.406" transform="translate(-550.67 -483.84)"/><path class="a" d="M633.55,518.7l15.715,5.893" transform="translate(-562.545 -488.293)"/><path class="a" d="M637.39,536.221V514.94" transform="translate(-550.67 -499.921)"/><path class="a" d="M637.39,523.48l10.763-4.42" transform="translate(-550.67 -487.179)"/><path class="a" d="M643.575,520.14l-8.185,14.406" transform="translate(-556.855 -483.84)"/><path class="a" d="M641.162,539.123,633.55,518.66" transform="translate(-562.545 -488.416)"/><path class="a" d="M643.029,516.84l-18.948,7.612" transform="translate(-591.831 -494.045)"/><path class="a" d="M624.08,530.483l4.093-15.593" transform="translate(-591.831 -500.075)"/><path class="a" d="M637.285,518.7l-17.475,5.934" transform="translate(-605.036 -488.293)"/><path class="a" d="M630.974,520.15,616.2,534.474" transform="translate(-616.2 -483.809)"/><path class="a" d="M619.81,520.15,628,534.474" transform="translate(-605.036 -483.809)"/><path class="a" d="M619.81,536.54V514.85" transform="translate(-605.036 -500.199)"/><path class="a" d="M627.82,524.51l-10.6-5.77" transform="translate(-613.046 -488.169)"/><path class="a" d="M625.08,526.085l14.651-14.815,14.774,15.02" transform="translate(-588.739 -511.27)"/><path class="a" d="M631.192,518.62l-9.372,20.463" transform="translate(-598.82 -488.54)"/><path class="a" d="M628.74,522.521l14.61-7.571h20.872" transform="translate(-577.42 -499.89)"/><path class="a" d="M640.09,522.769l-15.02-7.9" transform="translate(-588.77 -500.137)"/><path class="a" d="M632.31,523.2l5.443-10.845" transform="translate(-566.38 -507.93)"/></g><g transform="translate(0.041 50.788)"><path class="a" d="M619.81,532.4h21.568" transform="translate(-605.036 -496.386)"/><path class="a" d="M623.7,543.379l5.607-11.009" transform="translate(-593.006 -496.479)"/><path class="a" d="M628.71,536.376l19.808-7.816-5.2,15.347" transform="translate(-577.513 -508.261)"/><path class="a" d="M637.39,538.006,652.164,523.6" transform="translate(-550.67 -523.6)"/><path class="a" d="M633.55,533.013l15.715-5.893" transform="translate(-562.545 -512.714)"/><path class="a" d="M637.39,527.12v21.24" transform="translate(-550.67 -512.714)"/><path class="a" d="M637.39,527.12l10.681,4.42" transform="translate(-550.67 -512.714)"/><path class="a" d="M643.575,538.006,635.39,523.6" transform="translate(-556.855 -523.6)"/><path class="a" d="M641.162,523.6l-7.612,20.463" transform="translate(-562.545 -523.6)"/><path class="a" d="M643.029,536.172,624.08,528.56" transform="translate(-591.831 -508.261)"/><path class="a" d="M624.08,528.56l4.093,15.592" transform="translate(-591.831 -508.261)"/><path class="a" d="M637.285,533.044,619.81,527.11" transform="translate(-605.036 -512.745)"/><path class="a" d="M630.974,537.934,616.2,523.61" transform="translate(-616.2 -523.569)"/><path class="a" d="M619.81,537.934,628,523.61" transform="translate(-605.036 -523.569)"/><path class="a" d="M619.81,527.11V548.8" transform="translate(-605.036 -512.745)"/><path class="a" d="M627.82,527.11l-10.6,5.77" transform="translate(-613.046 -512.745)"/><path class="a" d="M625.08,532.556l14.651,14.815,14.774-15.06" transform="translate(-588.739 -496.664)"/><path class="a" d="M631.192,544.1,621.82,523.64" transform="translate(-598.82 -523.476)"/><path class="a" d="M628.74,530.46l14.61,7.571h20.872" transform="translate(-577.42 -502.385)"/><path class="a" d="M640.09,530.46l-15.02,7.9" transform="translate(-588.77 -502.385)"/><path class="a" d="M632.31,532.31l5.443,10.845" transform="translate(-566.38 -496.664)"/></g><ellipse class="a" cx="50.665" cy="50.87" rx="50.665" ry="50.87"/></g><path class="b" d="M642.141,523.325a5.4,5.4,0,0,1-.491,2.7,5.65,5.65,0,0,1-2.047,1.883,5.2,5.2,0,0,1-2.66.614,4.748,4.748,0,0,1-2.578-.737,4.912,4.912,0,0,1-1.842-1.923,4.99,4.99,0,0,1-.778-2.537,5.075,5.075,0,0,1,.614-2.7,5.52,5.52,0,0,1,1.923-1.964,5.282,5.282,0,0,1,2.66-.532,5.2,5.2,0,0,1,2.66.614,4.949,4.949,0,0,1,2.005,1.883A5.317,5.317,0,0,1,642.141,523.325Z" transform="translate(-568.107 -489.766)"/><path class="b" d="M629.413,532.117a3.6,3.6,0,0,1-1.064,2.619,3.437,3.437,0,0,1-5.238,0,3.642,3.642,0,0,1-1.024-2.578,3.6,3.6,0,0,1,.942-2.7,3.765,3.765,0,0,1,2.7-1.187,4.089,4.089,0,0,1,2.66,1.187A3.725,3.725,0,0,1,629.413,532.117Z" transform="translate(-597.983 -458.37)"/><path class="b" d="M639.682,531.208a3.849,3.849,0,0,1-1.187,2.7,3.725,3.725,0,0,1-2.66,1.1,3.519,3.519,0,0,1-3.765-3.806,3.723,3.723,0,0,1,1.064-2.7,3.845,3.845,0,0,1,2.7-1.187,4.092,4.092,0,0,1,3.847,3.888Z" transform="translate(-567.121 -461.308)"/></g></svg>