<svg xmlns="http://www.w3.org/2000/svg" viewBox="0 0 182.65 153.6"><defs><style>.cls-1,.cls-2,.cls-3,.cls-4,.cls-5{fill:none;stroke-miterlimit:10;stroke-width:3px;}.cls-1{stroke:#c7a3a8;}.cls-2,.cls-3,.cls-4,.cls-5{stroke:#d68a8a;}.cls-2{stroke-dasharray:2;}.cls-3{stroke-dasharray:2.08 2.08;}.cls-4{stroke-dasharray:2.23 2.23;}.cls-5{stroke-dasharray:2.05 2.05;}</style></defs><title>icon-1</title><g id="Layer_2" data-name="Layer 2"><g id="Layer_1-2" data-name="Layer 1"><line class="cls-1" x1="55.38" y1="61.08" x2="127.34" y2="61.08"/><path class="cls-1" d="M76.4,61.08l14.93-25,15,25"/><path class="cls-1" d="M116.9,36.12H65.81l-10.43,25L91.33,96.37h0l36-35.28Z"/><path class="cls-1" d="M116.9,36.12,91.33,96.37,65.81,36.12"/><path class="cls-2" d="M134.55,20.42H48.16L30.52,62.61l60.81,59.74h0l60.86-59.74Z"/><path class="cls-1" d="M156.9,6.21l-2-4.71h-5.11"/><line class="cls-3" x1="139.2" y1="1.5" x2="38.19" y2="1.5"/><path class="cls-1" d="M32.88,1.5H27.76L25.82,6.21"/><line class="cls-4" x1="21.42" y1="16.74" x2="5.98" y2="53.61"/><path class="cls-1" d="M3.78,58.88l-2,4.71,3.68,3.58"/><line class="cls-5" x1="12.93" y1="74.48" x2="83.97" y2="144.24"/><path class="cls-1" d="M87.7,147.92l3.63,3.58h0L95,147.92"/><line class="cls-5" x1="102.48" y1="140.56" x2="173.52" y2="70.85"/><path class="cls-1" d="M177.25,67.17l3.63-3.58-1.94-4.71"/><line class="cls-4" x1="174.54" y1="48.35" x2="159.09" y2="11.47"/></g></g></svg>