<svg xmlns="http://www.w3.org/2000/svg" viewBox="0 0 159.66 113.69"><defs><style>.cls-1{fill:#fff;}.cls-2,.cls-5{fill:#c7a3a8;}.cls-2,.cls-3{stroke:#c7a3a8;}.cls-2,.cls-3,.cls-4{stroke-miterlimit:10;}.cls-3,.cls-4,.cls-6{fill:none;}.cls-4{stroke:#a67f7f;}</style></defs><title>icon-3</title><g id="Layer_2" data-name="Layer 2"><g id="Layer_1-2" data-name="Layer 1"><rect class="cls-1" x="0.59" y="74.53" width="159.07" height="39.17"/><path class="cls-2" d="M144.93,1H93.74L83.25,26l36.07,35.44h0L155.39,26Z"/><line class="cls-3" x1="0.59" y1="25.98" x2="72.73" y2="25.98"/><path class="cls-3" d="M21.66,26l15-25,15,25"/><path class="cls-3" d="M62.27,1H11.05L.59,26,36.66,61.42h0L72.73,26Z"/><path class="cls-3" d="M62.27,1,36.66,61.42,11.05,1"/><line class="cls-3" x1="83.25" y1="25.98" x2="155.39" y2="25.98"/><path class="cls-4" d="M104.32,26l15-25,15,25"/><path class="cls-3" d="M144.93,1H93.74L83.25,26l36.07,35.44h0L155.39,26Z"/><path class="cls-4" d="M144.93,1,119.32,61.42,93.74,1"/><path class="cls-5" d="M2.36,101V87.12A1.85,1.85,0,0,1,4,85.1a1.89,1.89,0,0,1,.41,0H9.46a9,9,0,0,1,0,18H4.41a1.88,1.88,0,0,1-2.06-1.65,2.57,2.57,0,0,1,0-.48Zm7.1-1.33a5.38,5.38,0,0,0,5.62-5.13,3.53,3.53,0,0,0,0-.46,5.24,5.24,0,0,0-4.81-5.62,5.48,5.48,0,0,0-.81,0H6.21V99.68Z"/><path class="cls-5" d="M41.05,101.34v-5.8H32.54v5.8a1.89,1.89,0,0,1-1.86,1.92h0a2,2,0,0,1-1.95-1.92V86.82a1.91,1.91,0,0,1,1.92-1.89,1.85,1.85,0,0,1,1.89,1.83v5.41h8.51V86.82a1.93,1.93,0,0,1,3.85,0v14.52a2,2,0,0,1-2,1.92,1.92,1.92,0,0,1-1.89-1.92Z"/><path class="cls-5" d="M55.15,101.34V86.82a1.92,1.92,0,0,1,3.81,0v14.52a1.92,1.92,0,1,1-3.81,0Z"/><path class="cls-5" d="M68.1,101a1.69,1.69,0,0,1,1.69-1.69,2,2,0,0,1,.75.15,2.91,2.91,0,0,0,1.74.51,2.64,2.64,0,0,0,2.82-2.45,2.51,2.51,0,0,0,0-.55V86.7a1.93,1.93,0,0,1,3.82,0V97a5.7,5.7,0,0,1-6.31,6.22,7.09,7.09,0,0,1-3.52-.87A1.68,1.68,0,0,1,68.1,101Z"/><path class="cls-5" d="M103.78,101.4a1.83,1.83,0,0,1-1.8,1.86,1.66,1.66,0,0,1-1.35-.6l-6-6.73-1.45,1.62v3.79a1.92,1.92,0,0,1-1.92,1.92h0a1.94,1.94,0,0,1-1.92-1.92V86.82a1.92,1.92,0,0,1,3.84,0v6.34l6.92-7.66a1.73,1.73,0,0,1,1.35-.57,1.77,1.77,0,0,1,1.77,1.77h0a1.57,1.57,0,0,1-.48,1.17l-5.44,5.77,6,6.56A1.94,1.94,0,0,1,103.78,101.4Z"/><path class="cls-5" d="M113.37,101V86.82a1.93,1.93,0,0,1,3.82,0V99.68h6a1.69,1.69,0,0,1,0,3.37h-7.9a1.84,1.84,0,0,1-1.94-1.73c0-.1,0-.21,0-.31Z"/><path class="cls-5" d="M150,101.34V90.15l-4.89,12.39a1.1,1.1,0,0,1-1,.72,1.16,1.16,0,0,1-1-.72l-4.87-12.38v11.18a1.88,1.88,0,0,1-1.86,1.92h0a1.94,1.94,0,0,1-1.95-1.92V88.05a3.06,3.06,0,1,1,6-1.22.52.52,0,0,0,0,.11L144,96.32l3.7-9.38a3.18,3.18,0,0,1,6.17,1v13.29a2,2,0,0,1-2,1.92,1.93,1.93,0,0,1-1.92-1.8Z"/><line class="cls-6" x1="0.59" y1="74.53" x2="159.66" y2="74.53"/><line class="cls-4" x1="83.25" y1="25.98" x2="155.39" y2="25.98"/></g></g></svg>