<svg xmlns="http://www.w3.org/2000/svg" width="31.452" height="31.452" viewBox="0 0 31.452 31.452"><g transform="translate(0)"><path d="M213,210a3,3,0,1,1-3-3A3,3,0,0,1,213,210Zm0,0" transform="translate(-194.274 -194.274)"/><path d="M149.876,137.559a2.98,2.98,0,0,0-1.708-1.708,4.978,4.978,0,0,0-1.671-.31c-.949-.043-1.234-.053-3.636-.053s-2.687.009-3.636.052a4.982,4.982,0,0,0-1.671.31,2.981,2.981,0,0,0-1.708,1.708,4.981,4.981,0,0,0-.31,1.671c-.043.949-.053,1.233-.053,3.636s.009,2.687.053,3.636a4.98,4.98,0,0,0,.31,1.671,2.98,2.98,0,0,0,1.708,1.708,4.972,4.972,0,0,0,1.671.31c.949.043,1.233.052,3.636.052s2.688-.009,3.636-.052a4.972,4.972,0,0,0,1.671-.31,2.98,2.98,0,0,0,1.708-1.708,4.983,4.983,0,0,0,.31-1.671c.043-.949.052-1.234.052-3.636s-.009-2.687-.052-3.636A4.973,4.973,0,0,0,149.876,137.559Zm-7.015,9.927a4.621,4.621,0,1,1,4.621-4.621A4.621,4.621,0,0,1,142.862,147.486Zm4.8-8.344a1.08,1.08,0,1,1,1.08-1.08A1.08,1.08,0,0,1,147.665,139.142Zm0,0" transform="translate(-127.136 -127.14)"/><path d="M15.726,0A15.726,15.726,0,1,0,31.452,15.726,15.728,15.728,0,0,0,15.726,0ZM24.7,19.449a6.625,6.625,0,0,1-.42,2.192,4.617,4.617,0,0,1-2.641,2.641,6.63,6.63,0,0,1-2.192.42c-.963.044-1.271.054-3.723.054S12.966,24.745,12,24.7a6.63,6.63,0,0,1-2.192-.42A4.617,4.617,0,0,1,7.17,21.641a6.623,6.623,0,0,1-.42-2.192c-.044-.963-.055-1.271-.055-3.723s.01-2.76.054-3.723A6.626,6.626,0,0,1,7.17,9.811,4.62,4.62,0,0,1,9.811,7.17,6.631,6.631,0,0,1,12,6.75c.963-.044,1.271-.054,3.723-.054s2.76.011,3.723.055a6.633,6.633,0,0,1,2.192.419,4.619,4.619,0,0,1,2.641,2.641A6.624,6.624,0,0,1,24.7,12c.044.963.054,1.271.054,3.723S24.746,18.486,24.7,19.449Zm0,0" transform="translate(0)"/></g></svg>