<svg xmlns="http://www.w3.org/2000/svg" width="92.812" height="92.8" viewBox="0 0 92.812 92.8"><defs><style>.a{fill:#767676;}</style></defs><g transform="translate(0 -0.002)"><path class="a" d="M35.51,24.212,16.238,10.2a2.324,2.324,0,0,0-3.691,1.875v28.01a2.317,2.317,0,0,0,1.269,2.072,2.341,2.341,0,0,0,1.056.25,2.31,2.31,0,0,0,1.365-.451l19.272-14a2.305,2.305,0,0,0,0-3.749Z" transform="translate(26.204 20.375)"/><path class="a" d="M46.408,0a46.4,46.4,0,1,0,46.4,46.408A46.4,46.4,0,0,0,46.408,0Zm0,85.057A38.656,38.656,0,1,1,85.057,46.41,38.65,38.65,0,0,1,46.408,85.059Z"/></g></svg>